    <svg
      width="20"
      height="20"
      viewBox="0 0 16 16"
      fill="none"
      xmlns="http://www.w3.org/2000/svg"
      class="nav-active-icon"
    >
      <path
        d="M4.18182 5.6H14.8182C15.1677 5.6 15.4 5.86257 15.4 6.125V12.875C15.4 13.1374 15.1677 13.4 14.8182 13.4H4.18182C3.83229 13.4 3.6 13.1374 3.6 12.875V6.125C3.6 5.86257 3.83229 5.6 4.18182 5.6Z"
        fill="white"
        stroke="white"
        stroke-width="1.2"
        stroke-linecap="round"
        stroke-linejoin="round"
      ></path>
      <path
        d="M9.5 11.5C10.6046 11.5 11.5 10.6046 11.5 9.5C11.5 8.39543 10.6046 7.5 9.5 7.5C8.39543 7.5 7.5 8.39543 7.5 9.5C7.5 10.6046 8.39543 11.5 9.5 11.5Z"
        fill="#1A181E"
      ></path>
      <path
        d="M4 5.4C3.66863 5.4 3.4 5.66863 3.4 6V10.4H1.18182C0.762625 10.4 0.6 10.1309 0.6 10V3C0.6 2.86913 0.762626 2.6 1.18182 2.6H11.8182C12.2374 2.6 12.4 2.86913 12.4 3L12.4 5.4H4Z"
        stroke="white"
        stroke-width="1.2"
        stroke-linecap="round"
        stroke-linejoin="round"
      ></path>
    </svg>